<mxfile host="app.diagrams.net" modified="2023-12-15T07:03:08.587Z" agent="Mozilla/5.0 (Macintosh; Intel Mac OS X 10_15_7) AppleWebKit/537.36 (KHTML, like Gecko) Chrome/120.0.0.0 Safari/537.36" etag="drn9STQr2eQ5wKjxthuG" version="22.1.9" type="github">
  <diagram name="第 1 页" id="Y4wQD-pbCirq9T_VrnDq">
    <mxGraphModel dx="1434" dy="734" grid="1" gridSize="10" guides="1" tooltips="1" connect="1" arrows="1" fold="1" page="1" pageScale="1" pageWidth="827" pageHeight="1169" math="0" shadow="0">
      <root>
        <mxCell id="0" />
        <mxCell id="1" parent="0" />
        <mxCell id="o2AHgQSNgwUj-9A4sk8h-19" style="edgeStyle=orthogonalEdgeStyle;rounded=0;orthogonalLoop=1;jettySize=auto;html=1;exitX=1;exitY=0.3333333333333333;exitDx=0;exitDy=0;exitPerimeter=0;entryX=0;entryY=0.5;entryDx=0;entryDy=0;" edge="1" parent="1" source="o2AHgQSNgwUj-9A4sk8h-1" target="o2AHgQSNgwUj-9A4sk8h-6">
          <mxGeometry relative="1" as="geometry" />
        </mxCell>
        <mxCell id="o2AHgQSNgwUj-9A4sk8h-20" value="1.Start up" style="edgeLabel;html=1;align=center;verticalAlign=middle;resizable=0;points=[];" vertex="1" connectable="0" parent="o2AHgQSNgwUj-9A4sk8h-19">
          <mxGeometry x="-0.1429" y="-1" relative="1" as="geometry">
            <mxPoint as="offset" />
          </mxGeometry>
        </mxCell>
        <mxCell id="o2AHgQSNgwUj-9A4sk8h-1" value="Anchor" style="shape=umlActor;verticalLabelPosition=bottom;verticalAlign=top;html=1;outlineConnect=0;" vertex="1" parent="1">
          <mxGeometry x="30" y="267" width="30" height="60" as="geometry" />
        </mxCell>
        <mxCell id="o2AHgQSNgwUj-9A4sk8h-25" style="edgeStyle=none;rounded=0;orthogonalLoop=1;jettySize=auto;html=1;exitX=0.25;exitY=1;exitDx=0;exitDy=0;entryX=0.25;entryY=0;entryDx=0;entryDy=0;" edge="1" parent="1" source="o2AHgQSNgwUj-9A4sk8h-5" target="o2AHgQSNgwUj-9A4sk8h-8">
          <mxGeometry relative="1" as="geometry" />
        </mxCell>
        <mxCell id="o2AHgQSNgwUj-9A4sk8h-26" value="3.Pass in token" style="edgeLabel;html=1;align=center;verticalAlign=middle;resizable=0;points=[];" vertex="1" connectable="0" parent="o2AHgQSNgwUj-9A4sk8h-25">
          <mxGeometry x="-0.25" relative="1" as="geometry">
            <mxPoint as="offset" />
          </mxGeometry>
        </mxCell>
        <mxCell id="o2AHgQSNgwUj-9A4sk8h-5" value="Gameplay client" style="rounded=0;whiteSpace=wrap;html=1;verticalAlign=middle;align=center;fillColor=#f8cecc;strokeColor=#b85450;" vertex="1" parent="1">
          <mxGeometry x="634" y="188" width="150" height="200" as="geometry" />
        </mxCell>
        <mxCell id="o2AHgQSNgwUj-9A4sk8h-14" style="edgeStyle=orthogonalEdgeStyle;rounded=0;orthogonalLoop=1;jettySize=auto;html=1;exitX=1;exitY=0.25;exitDx=0;exitDy=0;entryX=0;entryY=0.25;entryDx=0;entryDy=0;" edge="1" parent="1" source="o2AHgQSNgwUj-9A4sk8h-6" target="o2AHgQSNgwUj-9A4sk8h-5">
          <mxGeometry relative="1" as="geometry" />
        </mxCell>
        <mxCell id="o2AHgQSNgwUj-9A4sk8h-15" value="2.Start up&lt;br&gt;( with a token parameter)" style="edgeLabel;html=1;align=center;verticalAlign=middle;resizable=0;points=[];" vertex="1" connectable="0" parent="o2AHgQSNgwUj-9A4sk8h-14">
          <mxGeometry x="-0.1077" y="1" relative="1" as="geometry">
            <mxPoint as="offset" />
          </mxGeometry>
        </mxCell>
        <mxCell id="o2AHgQSNgwUj-9A4sk8h-6" value="Douyin Live Companion" style="rounded=0;whiteSpace=wrap;html=1;verticalAlign=top;" vertex="1" parent="1">
          <mxGeometry x="185" y="188" width="280" height="200" as="geometry" />
        </mxCell>
        <mxCell id="o2AHgQSNgwUj-9A4sk8h-31" style="edgeStyle=none;rounded=0;orthogonalLoop=1;jettySize=auto;html=1;exitX=1;exitY=0.25;exitDx=0;exitDy=0;entryX=0;entryY=0.25;entryDx=0;entryDy=0;" edge="1" parent="1" source="o2AHgQSNgwUj-9A4sk8h-7" target="o2AHgQSNgwUj-9A4sk8h-8">
          <mxGeometry relative="1" as="geometry" />
        </mxCell>
        <mxCell id="o2AHgQSNgwUj-9A4sk8h-32" value="5. Return roomId" style="edgeLabel;html=1;align=center;verticalAlign=middle;resizable=0;points=[];" vertex="1" connectable="0" parent="o2AHgQSNgwUj-9A4sk8h-31">
          <mxGeometry x="0.0602" y="4" relative="1" as="geometry">
            <mxPoint y="1" as="offset" />
          </mxGeometry>
        </mxCell>
        <mxCell id="o2AHgQSNgwUj-9A4sk8h-7" value="Platform Server" style="rounded=0;whiteSpace=wrap;html=1;fillColor=#f5f5f5;strokeColor=#666666;fontColor=#333333;" vertex="1" parent="1">
          <mxGeometry x="185" y="508" width="200" height="230" as="geometry" />
        </mxCell>
        <mxCell id="o2AHgQSNgwUj-9A4sk8h-27" style="edgeStyle=none;rounded=0;orthogonalLoop=1;jettySize=auto;html=1;exitX=0.75;exitY=0;exitDx=0;exitDy=0;entryX=0.75;entryY=1;entryDx=0;entryDy=0;" edge="1" parent="1" source="o2AHgQSNgwUj-9A4sk8h-8" target="o2AHgQSNgwUj-9A4sk8h-5">
          <mxGeometry relative="1" as="geometry" />
        </mxCell>
        <mxCell id="o2AHgQSNgwUj-9A4sk8h-28" value="6. Return roomId" style="edgeLabel;html=1;align=center;verticalAlign=middle;resizable=0;points=[];" vertex="1" connectable="0" parent="o2AHgQSNgwUj-9A4sk8h-27">
          <mxGeometry x="0.0833" y="-2" relative="1" as="geometry">
            <mxPoint x="6" y="15" as="offset" />
          </mxGeometry>
        </mxCell>
        <mxCell id="o2AHgQSNgwUj-9A4sk8h-29" style="edgeStyle=none;rounded=0;orthogonalLoop=1;jettySize=auto;html=1;exitX=0;exitY=0.25;exitDx=0;exitDy=0;entryX=0.995;entryY=0.126;entryDx=0;entryDy=0;entryPerimeter=0;" edge="1" parent="1" target="o2AHgQSNgwUj-9A4sk8h-7">
          <mxGeometry relative="1" as="geometry">
            <mxPoint x="634" y="538" as="sourcePoint" />
            <mxPoint x="424" y="538" as="targetPoint" />
          </mxGeometry>
        </mxCell>
        <mxCell id="o2AHgQSNgwUj-9A4sk8h-30" value="4.Pass in token, get live info" style="edgeLabel;html=1;align=center;verticalAlign=middle;resizable=0;points=[];" vertex="1" connectable="0" parent="o2AHgQSNgwUj-9A4sk8h-29">
          <mxGeometry x="-0.2095" y="-1" relative="1" as="geometry">
            <mxPoint x="-17" as="offset" />
          </mxGeometry>
        </mxCell>
        <mxCell id="o2AHgQSNgwUj-9A4sk8h-8" value="Developer Server" style="rounded=0;whiteSpace=wrap;html=1;fillColor=#f8cecc;strokeColor=#b85450;" vertex="1" parent="1">
          <mxGeometry x="634" y="508" width="150" height="230" as="geometry" />
        </mxCell>
        <mxCell id="o2AHgQSNgwUj-9A4sk8h-9" value="Audience" style="shape=umlActor;verticalLabelPosition=bottom;verticalAlign=top;html=1;outlineConnect=0;" vertex="1" parent="1">
          <mxGeometry x="30" y="590" width="30" height="60" as="geometry" />
        </mxCell>
        <mxCell id="o2AHgQSNgwUj-9A4sk8h-23" style="edgeStyle=none;rounded=0;orthogonalLoop=1;jettySize=auto;html=1;exitX=0.75;exitY=1;exitDx=0;exitDy=0;entryX=0;entryY=0;entryDx=0;entryDy=0;" edge="1" parent="1" source="o2AHgQSNgwUj-9A4sk8h-11" target="o2AHgQSNgwUj-9A4sk8h-8">
          <mxGeometry relative="1" as="geometry" />
        </mxCell>
        <mxCell id="o2AHgQSNgwUj-9A4sk8h-24" value="8.Send plarform open data(e.g. &lt;font color=&quot;#ff3333&quot;&gt;gifts&lt;/font&gt;, comments, &lt;font color=&quot;#ff3333&quot;&gt;likes&lt;/font&gt;)" style="edgeLabel;html=1;align=center;verticalAlign=middle;resizable=0;points=[];" vertex="1" connectable="0" parent="o2AHgQSNgwUj-9A4sk8h-23">
          <mxGeometry x="-0.2201" y="-2" relative="1" as="geometry">
            <mxPoint as="offset" />
          </mxGeometry>
        </mxCell>
        <mxCell id="o2AHgQSNgwUj-9A4sk8h-11" value="Magic box “platform gameplay”" style="rounded=0;whiteSpace=wrap;html=1;labelBackgroundColor=none;fillColor=#d5e8d4;strokeColor=#82b366;" vertex="1" parent="1">
          <mxGeometry x="218" y="240" width="220" height="110" as="geometry" />
        </mxCell>
        <mxCell id="o2AHgQSNgwUj-9A4sk8h-16" style="edgeStyle=orthogonalEdgeStyle;rounded=0;orthogonalLoop=1;jettySize=auto;html=1;exitX=0.007;exitY=0.68;exitDx=0;exitDy=0;entryX=1;entryY=0.75;entryDx=0;entryDy=0;exitPerimeter=0;" edge="1" parent="1" source="o2AHgQSNgwUj-9A4sk8h-5" target="o2AHgQSNgwUj-9A4sk8h-11">
          <mxGeometry relative="1" as="geometry" />
        </mxCell>
        <mxCell id="o2AHgQSNgwUj-9A4sk8h-17" value="7.Start up successfully" style="edgeLabel;html=1;align=center;verticalAlign=middle;resizable=0;points=[];" vertex="1" connectable="0" parent="o2AHgQSNgwUj-9A4sk8h-16">
          <mxGeometry x="0.0496" y="-1" relative="1" as="geometry">
            <mxPoint as="offset" />
          </mxGeometry>
        </mxCell>
      </root>
    </mxGraphModel>
  </diagram>
</mxfile>
